<svg id="google-plus-logo-button_1_" data-name="google-plus-logo-button (1)" xmlns="http://www.w3.org/2000/svg" width="22.677" height="22.677" viewBox="0 0 22.677 22.677">
  <g id="Group_152" data-name="Group 152">
    <g id="Group_151" data-name="Group 151">
      <path id="Path_110" data-name="Path 110" d="M9.031,11.688c-.074-.049-.149-.1-.228-.155a2.585,2.585,0,0,0-.723-.11h-.03c-1.148,0-2.155.695-2.155,1.488a1.77,1.77,0,0,0,1.963,1.538c1.452,0,2.188-.5,2.188-1.488a1.236,1.236,0,0,0-.034-.287C9.913,12.29,9.562,12.052,9.031,11.688Z" transform="translate(0.789 1.529)" fill="#f15922"/>
      <path id="Path_111" data-name="Path 111" d="M8.134,9.425h0a.879.879,0,0,0,.686-.314,1.8,1.8,0,0,0,.332-1.405A1.99,1.99,0,0,0,7.564,5.855h-.03a.88.88,0,0,0-.677.313,1.746,1.746,0,0,0-.322,1.376c.131,1,.86,1.859,1.589,1.882Z" transform="translate(0.872 0.784)" fill="#f15922"/>
      <path id="Path_112" data-name="Path 112" d="M11.339,0A11.339,11.339,0,1,0,22.677,11.339,11.351,11.351,0,0,0,11.339,0ZM10.031,16.86a4.967,4.967,0,0,1-1.378.186,6.318,6.318,0,0,1-1.548-.185A3,3,0,0,1,5.147,15.6a1.611,1.611,0,0,1-.211-.793,2.014,2.014,0,0,1,.2-.859,3.682,3.682,0,0,1,3.375-1.835h.043a1.339,1.339,0,0,1-.181-.672,1.43,1.43,0,0,1,.047-.356A2.708,2.708,0,0,1,5.666,8.367,2.9,2.9,0,0,1,7.754,5.822,3.406,3.406,0,0,1,8.865,5.63h3.372a.265.265,0,0,1,.156.479l-.754.546a.27.27,0,0,1-.156.049h-.27a2.624,2.624,0,0,1,.553,1.683,2.511,2.511,0,0,1-1.054,1.969c-.525.409-.546.522-.546.755a2.239,2.239,0,0,0,.776.833,2.607,2.607,0,0,1,1.29,2.406A2.748,2.748,0,0,1,10.031,16.86Zm7.614-5.783a.265.265,0,0,1-.265.265H15.465v1.917a.265.265,0,0,1-.264.265h-.546a.265.265,0,0,1-.266-.265V11.342H12.474a.265.265,0,0,1-.265-.265v-.545a.266.266,0,0,1,.265-.266h1.915V8.351a.265.265,0,0,1,.266-.265H15.2a.265.265,0,0,1,.264.265v1.915H17.38a.265.265,0,0,1,.265.265v.546Z" fill="#f15922"/>
    </g>
  </g>
</svg>
