<svg xmlns="http://www.w3.org/2000/svg" width="22.677" height="22.677" viewBox="0 0 22.677 22.677">
  <path id="linkedin" d="M11.339,0A11.339,11.339,0,1,0,22.677,11.339,11.34,11.34,0,0,0,11.339,0ZM8.044,17.141H5.282V8.833H8.044ZM6.663,7.7H6.645a1.439,1.439,0,1,1,.036-2.871A1.44,1.44,0,1,1,6.663,7.7ZM18,17.141H15.24V12.7c0-1.117-.4-1.879-1.4-1.879a1.512,1.512,0,0,0-1.417,1.01,1.891,1.891,0,0,0-.091.674v4.64H9.572s.036-7.528,0-8.308h2.761v1.176a2.741,2.741,0,0,1,2.489-1.371C16.639,8.638,18,9.825,18,12.377Zm0,0" fill="#f15922"/>
</svg>
