<svg id="twitter-logo-button_1_" data-name="twitter-logo-button (1)" xmlns="http://www.w3.org/2000/svg" width="22.677" height="22.677" viewBox="0 0 22.677 22.677">
  <g id="Group_150" data-name="Group 150">
    <path id="Path_109" data-name="Path 109" d="M11.339,0A11.339,11.339,0,1,0,22.677,11.339,11.351,11.351,0,0,0,11.339,0ZM16.4,8.743c.005.112.008.226.008.339A7.424,7.424,0,0,1,4.978,15.335a5.27,5.27,0,0,0,3.864-1.081A2.612,2.612,0,0,1,6.4,12.442,2.62,2.62,0,0,0,7.582,12.4,2.61,2.61,0,0,1,5.489,9.839c0-.011,0-.022,0-.033a2.6,2.6,0,0,0,1.182.326,2.614,2.614,0,0,1-.807-3.484,7.41,7.41,0,0,0,5.379,2.728A2.612,2.612,0,0,1,15.69,6.994a5.209,5.209,0,0,0,1.658-.633A2.621,2.621,0,0,1,16.2,7.8a5.188,5.188,0,0,0,1.5-.411A5.25,5.25,0,0,1,16.4,8.743Z" fill="#f15922"/>
  </g>
</svg>
